ffmpeg started on 2025-06-07 at 15:38:55
Report written to "D:\Convert\FFMetrics\reports\psnr_report-6.txt"
Log level: 32
Command line:
ffmpeg -hide_banner -nostdin -i "G:\\\xc0\xed\xe8\xec\xe5\\\xce\xed\xe3\xee\xe8\xed\xe3\xe8\\!_36_\xce\xf1\xe5\xed\xfc_2024\\DreamCast\\\xd1\xee\xe1\xeb\xe0\xe7\xed 2,5-\xec\xe5\xf0\xed\xee\xe3\xee \xe8\xe7\xec\xe5\xf0\xe5\xed\xe8\xff\\[DC] 2-5 Jigen no Ririsa - 19_Telegram_HEVC.mkv" -i "G:\\\xc0\xed\xe8\xec\xe5\\\xce\xed\xe3\xee\xe8\xed\xe3\xe8\\!_36_\xce\xf1\xe5\xed\xfc_2024\\DreamCast\\\xd1\xee\xe1\xeb\xe0\xe7\xed 2,5-\xec\xe5\xf0\xed\xee\xe3\xee \xe8\xe7\xec\xe5\xf0\xe5\xed\xe8\xff\\[DC] 2-5 Jigen no Ririsa - 19_Telegram.mp4" -lavfi "[0:v]settb=AVTB,setpts=PTS-STARTPTS,format=pix_fmts=yuv420p10,fps=24000/1001,scale=1920:1080:flags=bicubic[main];[1:v]settb=AVTB,setpts=PTS-STARTPTS,format=pix_fmts=yuv420p,fps=24000/1001,scale=1920:1080:flags=bicubic[ref];[main][ref]psnr=eof_action=endall:stats_file='D\\:/Convert/FFMetrics/logs/psnr_logfile-6.txt'" -f null -
Input #0, matroska,webm, from 'G:\Аниме\Онгоинги\!_36_Осень_2024\DreamCast\Соблазн 2,5-мерного измерения\[DC] 2-5 Jigen no Ririsa - 19_Telegram_HEVC.mkv':
  Metadata:
    COMPATIBLE_BRANDS: isomiso2avc1mp41
    MAJOR_BRAND     : isom
    MINOR_VERSION   : 512
    ENCODER         : Lavf61.7.100
  Duration: 00:24:06.87, start: -0.021000, bitrate: 1201 kb/s
  Stream #0:0: Video: hevc (Main 10), yuv420p10le(tv, bt709, progressive), 1920x1080 [SAR 1:1 DAR 16:9], 23.98 fps, 23.98 tbr, 1k tbn (default)
      Metadata:
        HANDLER_NAME    : VideoHandler
        VENDOR_ID       : [0][0][0][0]
        ENCODER         : Lavc61.19.100 libx265
        BPS             : 1004536
        DURATION        : 00:24:06.695708333
        NUMBER_OF_FRAMES: 34686
        NUMBER_OF_BYTES : 181657169
        _STATISTICS_WRITING_APP: mkvpropedit v66.0.0 ('Josie') 64-bit
        _STATISTICS_WRITING_DATE_UTC: 2025-06-04 13:03:43
        _STATISTICS_TAGS: BPS DURATION NUMBER_OF_FRAMES NUMBER_OF_BYTES
  Stream #0:1: Audio: aac (LC), 48000 Hz, stereo, fltp (default)
      Metadata:
        HANDLER_NAME    : SoundHandler
        VENDOR_ID       : [0][0][0][0]
        ENCODER         : Lavc61.19.100 aac
        BPS             : 192820
        DURATION        : 00:24:06.869000000
        NUMBER_OF_FRAMES: 67823
        NUMBER_OF_BYTES : 34873179
        _STATISTICS_WRITING_APP: mkvpropedit v66.0.0 ('Josie') 64-bit
        _STATISTICS_WRITING_DATE_UTC: 2025-06-04 13:03:43
        _STATISTICS_TAGS: BPS DURATION NUMBER_OF_FRAMES NUMBER_OF_BYTES
Input #1, mov,mp4,m4a,3gp,3g2,mj2, from 'G:\Аниме\Онгоинги\!_36_Осень_2024\DreamCast\Соблазн 2,5-мерного измерения\[DC] 2-5 Jigen no Ririsa - 19_Telegram.mp4':
  Metadata:
    major_brand     : isom
    minor_version   : 512
    compatible_brands: isomiso2avc1mp41
    encoder         : Lavf61.1.100
  Duration: 00:24:06.81, start: 0.000000, bitrate: 3860 kb/s
  Stream #1:0[0x1](und): Video: h264 (High) (avc1 / 0x31637661), yuv420p(tv, bt709, progressive), 1920x1080 [SAR 1:1 DAR 16:9], 3712 kb/s, 23.98 fps, 23.98 tbr, 24k tbn (default)
      Metadata:
        handler_name    : VideoHandler
        vendor_id       : [0][0][0][0]
        encoder         : Lavc61.3.100 h264_qsv
  Stream #1:1[0x2](und): Audio: aac (HE-AACv2) (mp4a / 0x6134706D), 48000 Hz, stereo, fltp, 144 kb/s (default)
      Metadata:
        handler_name    : SoundHandler
        vendor_id       : [0][0][0][0]
Stream mapping:
  Stream #0:0 (hevc) -> settb:default
  Stream #1:0 (h264) -> settb:default
  psnr:default -> Stream #0:0 (wrapped_avframe)
  Stream #0:1 -> #0:1 (aac (native) -> pcm_s16le (native))
Output #0, null, to 'pipe:':
  Metadata:
    COMPATIBLE_BRANDS: isomiso2avc1mp41
    MAJOR_BRAND     : isom
    MINOR_VERSION   : 512
    encoder         : Lavf61.7.100
  Stream #0:0: Video: wrapped_avframe, yuv420p10le(tv, bt709, progressive), 1920x1080 [SAR 1:1 DAR 16:9], q=2-31, 200 kb/s, 23.98 fps, 23.98 tbn
      Metadata:
        encoder         : Lavc61.19.100 wrapped_avframe
  Stream #0:1: Audio: pcm_s16le, 48000 Hz, stereo, s16, 1536 kb/s (default)
      Metadata:
        HANDLER_NAME    : SoundHandler
        VENDOR_ID       : [0][0][0][0]
        _STATISTICS_TAGS: BPS DURATION NUMBER_OF_FRAMES NUMBER_OF_BYTES
        BPS             : 192820
        DURATION        : 00:24:06.869000000
        NUMBER_OF_FRAMES: 67823
        NUMBER_OF_BYTES : 34873179
        _STATISTICS_WRITING_APP: mkvpropedit v66.0.0 ('Josie') 64-bit
        _STATISTICS_WRITING_DATE_UTC: 2025-06-04 13:03:43
        encoder         : Lavc61.19.100 pcm_s16le
frame=  174 fps=0.0 q=-0.0 size=N/A time=00:00:07.25 bitrate=N/A speed=13.9x    frame=  387 fps=371 q=-0.0 size=N/A time=00:00:16.14 bitrate=N/A speed=15.5x    frame=  623 fps=401 q=-0.0 size=N/A time=00:00:25.98 bitrate=N/A speed=16.7x    frame=  804 fps=390 q=-0.0 size=N/A time=00:00:33.53 bitrate=N/A speed=16.3x    frame= 1046 fps=404 q=-0.0 size=N/A time=00:00:43.62 bitrate=N/A speed=16.9x    frame= 1287 fps=415 q=-0.0 size=N/A time=00:00:53.67 bitrate=N/A speed=17.3x    frame= 1521 fps=422 q=-0.0 size=N/A time=00:01:03.43 bitrate=N/A speed=17.6x    frame= 1768 fps=428 q=-0.0 size=N/A time=00:01:13.74 bitrate=N/A speed=17.8x    frame= 1943 fps=419 q=-0.0 size=N/A time=00:01:21.03 bitrate=N/A speed=17.5x    frame= 2113 fps=409 q=-0.0 size=N/A time=00:01:28.12 bitrate=N/A speed=17.1x    frame= 2323 fps=409 q=-0.0 size=N/A time=00:01:36.88 bitrate=N/A speed=17.1x    frame= 2538 fps=409 q=-0.0 size=N/A time=00:01:45.85 bitrate=N/A speed=17.1x    frame= 2764 fps=412 q=-0.0 size=N/A time=00:01:55.28 bitrate=N/A speed=17.2x    frame= 2969 fps=411 q=-0.0 size=N/A time=00:02:03.83 bitrate=N/A speed=17.2x    frame= 3217 fps=416 q=-0.0 size=N/A time=00:02:14.17 bitrate=N/A speed=17.3x    frame= 3440 fps=417 q=-0.0 size=N/A time=00:02:23.47 bitrate=N/A speed=17.4x    frame= 3678 fps=419 q=-0.0 size=N/A time=00:02:33.40 bitrate=N/A speed=17.5x    frame= 3947 fps=425 q=-0.0 size=N/A time=00:02:44.62 bitrate=N/A speed=17.7x    frame= 4200 fps=428 q=-0.0 size=N/A time=00:02:55.17 bitrate=N/A speed=17.9x    frame= 4443 fps=431 q=-0.0 size=N/A time=00:03:05.31 bitrate=N/A speed=  18x    frame= 4708 fps=435 q=-0.0 size=N/A time=00:03:16.36 bitrate=N/A speed=18.1x    frame= 4993 fps=440 q=-0.0 size=N/A time=00:03:28.24 bitrate=N/A speed=18.3x    frame= 5239 fps=441 q=-0.0 size=N/A time=00:03:38.50 bitrate=N/A speed=18.4x    frame= 5429 fps=439 q=-0.0 size=N/A time=00:03:46.43 bitrate=N/A speed=18.3x    frame= 5691 fps=441 q=-0.0 size=N/A time=00:03:57.36 bitrate=N/A speed=18.4x    frame= 5965 fps=445 q=-0.0 size=N/A time=00:04:08.79 bitrate=N/A speed=18.5x    frame= 6185 fps=444 q=-0.0 size=N/A time=00:04:17.96 bitrate=N/A speed=18.5x    frame= 6434 fps=445 q=-0.0 size=N/A time=00:04:28.35 bitrate=N/A speed=18.6x    frame= 6707 fps=448 q=-0.0 size=N/A time=00:04:39.73 bitrate=N/A speed=18.7x    frame= 6891 fps=445 q=-0.0 size=N/A time=00:04:47.41 bitrate=N/A speed=18.6x    frame= 7119 fps=445 q=-0.0 size=N/A time=00:04:56.92 bitrate=N/A speed=18.6x    frame= 7368 fps=446 q=-0.0 size=N/A time=00:05:07.30 bitrate=N/A speed=18.6x    frame= 7605 fps=447 q=-0.0 size=N/A time=00:05:17.19 bitrate=N/A speed=18.6x    frame= 7865 fps=448 q=-0.0 size=N/A time=00:05:28.03 bitrate=N/A speed=18.7x    frame= 8126 fps=450 q=-0.0 size=N/A time=00:05:38.92 bitrate=N/A speed=18.8x    frame= 8345 fps=449 q=-0.0 size=N/A time=00:05:48.05 bitrate=N/A speed=18.7x    frame= 8609 fps=451 q=-0.0 size=N/A time=00:05:59.06 bitrate=N/A speed=18.8x    frame= 8847 fps=451 q=-0.0 size=N/A time=00:06:08.99 bitrate=N/A speed=18.8x    frame= 9118 fps=453 q=-0.0 size=N/A time=00:06:20.29 bitrate=N/A speed=18.9x    frame= 9364 fps=453 q=-0.0 size=N/A time=00:06:30.55 bitrate=N/A speed=18.9x    frame= 9602 fps=454 q=-0.0 size=N/A time=00:06:40.48 bitrate=N/A speed=18.9x    frame= 9855 fps=454 q=-0.0 size=N/A time=00:06:51.03 bitrate=N/A speed=18.9x    frame=10081 fps=454 q=-0.0 size=N/A time=00:07:00.46 bitrate=N/A speed=18.9x    frame=10284 fps=452 q=-0.0 size=N/A time=00:07:08.92 bitrate=N/A speed=18.9x    frame=10487 fps=451 q=-0.0 size=N/A time=00:07:17.39 bitrate=N/A speed=18.8x    frame=10749 fps=453 q=-0.0 size=N/A time=00:07:28.32 bitrate=N/A speed=18.9x    frame=10996 fps=453 q=-0.0 size=N/A time=00:07:38.62 bitrate=N/A speed=18.9x    frame=11241 fps=454 q=-0.0 size=N/A time=00:07:48.84 bitrate=N/A speed=18.9x    frame=11483 fps=454 q=-0.0 size=N/A time=00:07:58.93 bitrate=N/A speed=18.9x    frame=11736 fps=455 q=-0.0 size=N/A time=00:08:09.48 bitrate=N/A speed=  19x    frame=11990 fps=455 q=-0.0 size=N/A time=00:08:20.08 bitrate=N/A speed=  19x    frame=12212 fps=455 q=-0.0 size=N/A time=00:08:29.34 bitrate=N/A speed=  19x    frame=12468 fps=456 q=-0.0 size=N/A time=00:08:40.01 bitrate=N/A speed=  19x    frame=12719 fps=456 q=-0.0 size=N/A time=00:08:50.48 bitrate=N/A speed=  19x    frame=12955 fps=456 q=-0.0 size=N/A time=00:09:00.33 bitrate=N/A speed=  19x    frame=13184 fps=456 q=-0.0 size=N/A time=00:09:09.88 bitrate=N/A speed=  19x    frame=13429 fps=456 q=-0.0 size=N/A time=00:09:20.10 bitrate=N/A speed=  19x    frame=13637 fps=456 q=-0.0 size=N/A time=00:09:28.77 bitrate=N/A speed=  19x    frame=13883 fps=456 q=-0.0 size=N/A time=00:09:39.03 bitrate=N/A speed=  19x    frame=14125 fps=456 q=-0.0 size=N/A time=00:09:49.13 bitrate=N/A speed=  19x    frame=14384 fps=457 q=-0.0 size=N/A time=00:09:59.93 bitrate=N/A speed=19.1x    frame=14642 fps=458 q=-0.0 size=N/A time=00:10:10.69 bitrate=N/A speed=19.1x    frame=14899 fps=458 q=-0.0 size=N/A time=00:10:21.41 bitrate=N/A speed=19.1x    frame=15122 fps=458 q=-0.0 size=N/A time=00:10:30.71 bitrate=N/A speed=19.1x    frame=15391 fps=459 q=-0.0 size=N/A time=00:10:41.93 bitrate=N/A speed=19.1x    frame=15656 fps=459 q=-0.0 size=N/A time=00:10:52.98 bitrate=N/A speed=19.2x    frame=15920 fps=460 q=-0.0 size=N/A time=00:11:03.99 bitrate=N/A speed=19.2x    frame=16153 fps=460 q=-0.0 size=N/A time=00:11:13.71 bitrate=N/A speed=19.2x    frame=16419 fps=461 q=-0.0 size=N/A time=00:11:24.80 bitrate=N/A speed=19.2x    frame=16679 fps=462 q=-0.0 size=N/A time=00:11:35.65 bitrate=N/A speed=19.3x    frame=16902 fps=461 q=-0.0 size=N/A time=00:11:44.95 bitrate=N/A speed=19.2x    frame=17138 fps=461 q=-0.0 size=N/A time=00:11:54.79 bitrate=N/A speed=19.2x    frame=17369 fps=461 q=-0.0 size=N/A time=00:12:04.43 bitrate=N/A speed=19.2x    frame=17627 fps=461 q=-0.0 size=N/A time=00:12:15.19 bitrate=N/A speed=19.2x    frame=17855 fps=461 q=-0.0 size=N/A time=00:12:24.70 bitrate=N/A speed=19.2x    frame=18126 fps=462 q=-0.0 size=N/A time=00:12:36.00 bitrate=N/A speed=19.3x    frame=18376 fps=462 q=-0.0 size=N/A time=00:12:46.43 bitrate=N/A speed=19.3x    frame=18610 fps=462 q=-0.0 size=N/A time=00:12:56.19 bitrate=N/A speed=19.3x    frame=18858 fps=463 q=-0.0 size=N/A time=00:13:06.53 bitrate=N/A speed=19.3x    frame=19111 fps=463 q=-0.0 size=N/A time=00:13:17.08 bitrate=N/A speed=19.3x    frame=19331 fps=462 q=-0.0 size=N/A time=00:13:26.26 bitrate=N/A speed=19.3x    frame=19535 fps=462 q=-0.0 size=N/A time=00:13:34.77 bitrate=N/A speed=19.3x    frame=19790 fps=462 q=-0.0 size=N/A time=00:13:45.40 bitrate=N/A speed=19.3x    frame=19999 fps=461 q=-0.0 size=N/A time=00:13:54.12 bitrate=N/A speed=19.2x    frame=20256 fps=462 q=-0.0 size=N/A time=00:14:04.84 bitrate=N/A speed=19.3x    frame=20504 fps=462 q=-0.0 size=N/A time=00:14:15.18 bitrate=N/A speed=19.3x    frame=20771 fps=463 q=-0.0 size=N/A time=00:14:26.32 bitrate=N/A speed=19.3x    frame=21032 fps=463 q=-0.0 size=N/A time=00:14:37.20 bitrate=N/A speed=19.3x    frame=21271 fps=463 q=-0.0 size=N/A time=00:14:47.17 bitrate=N/A speed=19.3x    frame=21515 fps=463 q=-0.0 size=N/A time=00:14:57.39 bitrate=N/A speed=19.3x    frame=21766 fps=464 q=-0.0 size=N/A time=00:15:07.82 bitrate=N/A speed=19.3x    frame=21967 fps=463 q=-0.0 size=N/A time=00:15:16.20 bitrate=N/A speed=19.3x    frame=22117 fps=461 q=-0.0 size=N/A time=00:15:22.46 bitrate=N/A speed=19.2x    frame=22284 fps=459 q=-0.0 size=N/A time=00:15:29.42 bitrate=N/A speed=19.2x    frame=22518 fps=459 q=-0.0 size=N/A time=00:15:39.18 bitrate=N/A speed=19.2x    frame=22713 fps=459 q=-0.0 size=N/A time=00:15:47.32 bitrate=N/A speed=19.1x    frame=22968 fps=459 q=-0.0 size=N/A time=00:15:57.95 bitrate=N/A speed=19.1x    frame=23207 fps=459 q=-0.0 size=N/A time=00:16:07.92 bitrate=N/A speed=19.1x    frame=23439 fps=459 q=-0.0 size=N/A time=00:16:17.60 bitrate=N/A speed=19.1x    frame=23701 fps=459 q=-0.0 size=N/A time=00:16:28.52 bitrate=N/A speed=19.2x    frame=23958 fps=460 q=-0.0 size=N/A time=00:16:39.24 bitrate=N/A speed=19.2x    frame=24227 fps=460 q=-0.0 size=N/A time=00:16:50.46 bitrate=N/A speed=19.2x    frame=24462 fps=460 q=-0.0 size=N/A time=00:17:00.26 bitrate=N/A speed=19.2x    frame=24704 fps=460 q=-0.0 size=N/A time=00:17:10.36 bitrate=N/A speed=19.2x    frame=24917 fps=460 q=-0.0 size=N/A time=00:17:19.24 bitrate=N/A speed=19.2x    frame=25167 fps=460 q=-0.0 size=N/A time=00:17:29.67 bitrate=N/A speed=19.2x    frame=25401 fps=460 q=-0.0 size=N/A time=00:17:39.43 bitrate=N/A speed=19.2x    frame=25646 fps=460 q=-0.0 size=N/A time=00:17:49.65 bitrate=N/A speed=19.2x    frame=25831 fps=459 q=-0.0 size=N/A time=00:17:57.36 bitrate=N/A speed=19.2x    frame=26043 fps=459 q=-0.0 size=N/A time=00:18:06.21 bitrate=N/A speed=19.1x    frame=26266 fps=459 q=-0.0 size=N/A time=00:18:15.51 bitrate=N/A speed=19.1x    frame=26544 fps=459 q=-0.0 size=N/A time=00:18:27.10 bitrate=N/A speed=19.2x    frame=26781 fps=459 q=-0.0 size=N/A time=00:18:36.99 bitrate=N/A speed=19.2x    frame=27054 fps=460 q=-0.0 size=N/A time=00:18:48.37 bitrate=N/A speed=19.2x    frame=27328 fps=461 q=-0.0 size=N/A time=00:18:59.80 bitrate=N/A speed=19.2x    frame=27581 fps=461 q=-0.0 size=N/A time=00:19:10.35 bitrate=N/A speed=19.2x    frame=27810 fps=461 q=-0.0 size=N/A time=00:19:19.90 bitrate=N/A speed=19.2x    frame=28063 fps=461 q=-0.0 size=N/A time=00:19:30.46 bitrate=N/A speed=19.2x    frame=28318 fps=461 q=-0.0 size=N/A time=00:19:41.09 bitrate=N/A speed=19.2x    frame=28543 fps=461 q=-0.0 size=N/A time=00:19:50.48 bitrate=N/A speed=19.2x    frame=28799 fps=461 q=-0.0 size=N/A time=00:20:01.15 bitrate=N/A speed=19.2x    frame=29074 fps=462 q=-0.0 size=N/A time=00:20:12.62 bitrate=N/A speed=19.3x    frame=29321 fps=462 q=-0.0 size=N/A time=00:20:22.93 bitrate=N/A speed=19.3x    frame=29579 fps=462 q=-0.0 size=N/A time=00:20:33.69 bitrate=N/A speed=19.3x    frame=29850 fps=463 q=-0.0 size=N/A time=00:20:44.99 bitrate=N/A speed=19.3x    frame=30081 fps=463 q=-0.0 size=N/A time=00:20:54.62 bitrate=N/A speed=19.3x    frame=30309 fps=463 q=-0.0 size=N/A time=00:21:04.13 bitrate=N/A speed=19.3x    frame=30587 fps=463 q=-0.0 size=N/A time=00:21:15.73 bitrate=N/A speed=19.3x    frame=30855 fps=464 q=-0.0 size=N/A time=00:21:26.95 bitrate=N/A speed=19.3x    frame=31111 fps=464 q=-0.0 size=N/A time=00:21:37.58 bitrate=N/A speed=19.3x    frame=31330 fps=464 q=-0.0 size=N/A time=00:21:46.72 bitrate=N/A speed=19.3x    frame=31564 fps=464 q=-0.0 size=N/A time=00:21:56.48 bitrate=N/A speed=19.3x    frame=31839 fps=464 q=-0.0 size=N/A time=00:22:07.95 bitrate=N/A speed=19.4x    frame=32091 fps=464 q=-0.0 size=N/A time=00:22:18.46 bitrate=N/A speed=19.4x    frame=32306 fps=464 q=-0.0 size=N/A time=00:22:27.42 bitrate=N/A speed=19.3x    frame=32531 fps=464 q=-0.0 size=N/A time=00:22:36.81 bitrate=N/A speed=19.3x    frame=32733 fps=463 q=-0.0 size=N/A time=00:22:45.23 bitrate=N/A speed=19.3x    frame=32998 fps=464 q=-0.0 size=N/A time=00:22:56.29 bitrate=N/A speed=19.3x    frame=33257 fps=464 q=-0.0 size=N/A time=00:23:07.09 bitrate=N/A speed=19.3x    frame=33507 fps=464 q=-0.0 size=N/A time=00:23:17.52 bitrate=N/A speed=19.3x    frame=33758 fps=464 q=-0.0 size=N/A time=00:23:27.98 bitrate=N/A speed=19.4x    frame=34015 fps=464 q=-0.0 size=N/A time=00:23:38.70 bitrate=N/A speed=19.4x    frame=34225 fps=464 q=-0.0 size=N/A time=00:23:47.46 bitrate=N/A speed=19.4x    frame=34436 fps=464 q=-0.0 size=N/A time=00:23:56.26 bitrate=N/A speed=19.3x    frame=34667 fps=463 q=-0.0 size=N/A time=00:24:05.90 bitrate=N/A speed=19.3x    [Parsed_psnr_10 @ 00000239ea5ed140] PSNR y:46.676315 u:49.736334 v:49.298650 average:47.432634 min:39.518890 max:inf
[out#0/null @ 00000239e9cb4780] video:14904KiB audio:271292KiB subtitle:0KiB other streams:0KiB global headers:0KiB muxing overhead: unknown
frame=34686 fps=464 q=-0.0 Lsize=N/A time=00:24:06.69 bitrate=N/A speed=19.3x    
